<?xml version="1.0" standalone="no"?>
<!DOCTYPE svg PUBLIC "-//W3C//DTD SVG 20010904//EN"
 "http://www.w3.org/TR/2001/REC-SVG-20010904/DTD/svg10.dtd">
<svg version="1.0" xmlns="http://www.w3.org/2000/svg"
 width="512.000000pt" height="512.000000pt" viewBox="0 0 512.000000 512.000000"
 preserveAspectRatio="xMidYMid meet">
<metadata>
Created by potrace 1.16, written by Peter Selinger 2001-2019
</metadata>
<g transform="translate(0.000000,512.000000) scale(0.100000,-0.100000)"
fill="#000000" stroke="none">
<path d="M2605 4376 c-267 -66 -407 -363 -287 -608 l28 -57 -30 18 c-65 39
-133 53 -234 49 -84 -3 -107 -8 -167 -36 -65 -31 -99 -62 -497 -460 -397 -397
-429 -432 -460 -497 -31 -67 -33 -76 -33 -186 0 -113 1 -116 38 -191 43 -89
112 -157 197 -197 31 -14 214 -91 407 -171 l352 -145 3 -456 3 -456 29 -41
c95 -138 316 -115 380 40 24 56 24 1090 0 1146 -31 75 -62 94 -311 198 l-235
97 243 243 c134 134 245 241 248 239 2 -3 22 -46 43 -97 l39 -92 -29 27 c-37
35 -82 48 -125 36 -48 -13 -69 -41 -75 -100 l-5 -50 231 -232 231 -232 36 -90
c21 -49 46 -102 57 -117 27 -39 94 -75 153 -83 l50 -7 490 -488 c465 -463 493
-489 550 -510 118 -44 256 -15 346 72 64 62 93 136 93 233 0 122 -37 175 -121
175 -33 0 -50 -7 -75 -29 -33 -29 -33 -31 -30 -109 2 -73 0 -81 -24 -105 -33
-34 -75 -42 -111 -23 -15 8 -232 219 -482 470 l-454 454 2 69 2 68 -282 680
c-155 374 -292 700 -304 725 l-23 46 61 -31 c58 -28 68 -30 182 -30 116 0 123
1 188 33 267 132 327 484 118 693 -108 107 -262 151 -406 115z"/>
<path d="M920 1942 l0 -190 -342 -252 c-189 -139 -355 -265 -370 -278 -66 -61
-78 -202 -24 -281 54 -77 174 -113 261 -77 36 16 785 566 842 619 55 52 64 91
61 271 l-3 159 -147 62 c-83 35 -175 82 -212 109 l-66 47 0 -189z"/>
<path d="M4705 1263 c-151 -79 -165 -280 -27 -378 40 -27 51 -30 122 -30 71 0
82 3 122 30 135 96 123 301 -23 375 -48 25 -150 26 -194 3z"/>
</g>
</svg>
