<?xml version="1.0" standalone="no"?>
<!DOCTYPE svg PUBLIC "-//W3C//DTD SVG 20010904//EN"
 "http://www.w3.org/TR/2001/REC-SVG-20010904/DTD/svg10.dtd">
<svg version="1.0" xmlns="http://www.w3.org/2000/svg"
 width="512.000000pt" height="512.000000pt" viewBox="0 0 512.000000 512.000000"
 preserveAspectRatio="xMidYMid meet">
<metadata>
Created by potrace 1.16, written by Peter Selinger 2001-2019
</metadata>
<g transform="translate(0.000000,512.000000) scale(0.100000,-0.100000)"
fill="#000000" stroke="none">
<path d="M426 5105 c-196 -54 -367 -231 -406 -422 -16 -77 -8 -243 16 -313 46
-136 18 -109 1583 -1541 805 -736 1467 -1339 1470 -1339 3 0 130 124 281 275
l274 274 -21 23 c-670 739 -2551 2799 -2615 2865 -98 100 -177 149 -284 177
-75 19 -229 20 -298 1z"/>
<path d="M2425 5106 c-207 -50 -383 -227 -440 -441 -20 -77 -21 -232 -1 -307
29 -109 75 -187 161 -273 124 -125 248 -176 425 -176 173 0 301 52 421 171 83
83 137 173 163 276 21 80 21 228 0 307 -56 215 -227 388 -439 442 -70 18 -219
18 -290 1z"/>
<path d="M4411 5104 c-83 -22 -186 -81 -249 -143 -116 -113 -1387 -1512 -1387
-1526 0 -16 625 -707 636 -703 10 4 1516 1387 1572 1444 29 29 65 83 90 133
l42 85 0 166 0 167 -40 79 c-72 143 -214 261 -360 299 -74 19 -232 19 -304 -1z"/>
<path d="M1616 2179 l-129 -141 274 -274 c151 -151 279 -273 285 -272 11 3
304 266 304 273 0 3 -502 463 -585 536 -20 18 -23 15 -149 -122z"/>
<path d="M993 1496 l-291 -323 240 -241 241 -240 311 285 c171 158 318 292
326 300 13 11 -21 49 -250 278 -146 146 -269 265 -275 264 -5 0 -141 -146
-302 -323z"/>
<path d="M3570 1554 l-265 -265 51 -47 c27 -26 174 -160 325 -298 l276 -252
240 240 241 240 -296 324 c-163 178 -299 324 -302 324 -3 0 -124 -120 -270
-266z"/>
<path d="M193 1004 c-103 -37 -175 -140 -181 -261 -8 -138 -4 -143 287 -436
144 -145 274 -268 296 -279 56 -30 175 -36 243 -14 69 23 143 91 173 158 18
40 23 71 23 128 0 128 -9 141 -302 432 -224 222 -263 257 -306 272 -61 20
-176 20 -233 0z"/>
<path d="M4730 1011 c-58 -18 -97 -52 -336 -293 -229 -230 -253 -258 -273
-311 -43 -118 -16 -235 73 -323 62 -60 122 -84 211 -84 124 0 133 6 416 287
165 163 264 270 278 297 17 35 21 61 21 140 0 83 -4 104 -25 145 -30 60 -92
115 -153 135 -47 17 -168 20 -212 7z"/>
</g>
</svg>
