<?xml version="1.0" standalone="no"?>
<!DOCTYPE svg PUBLIC "-//W3C//DTD SVG 20010904//EN"
 "http://www.w3.org/TR/2001/REC-SVG-20010904/DTD/svg10.dtd">
<svg version="1.0" xmlns="http://www.w3.org/2000/svg"
 width="512.000000pt" height="512.000000pt" viewBox="0 0 512.000000 512.000000"
 preserveAspectRatio="xMidYMid meet">
<metadata>
Created by potrace 1.16, written by Peter Selinger 2001-2019
</metadata>
<g transform="translate(0.000000,512.000000) scale(0.100000,-0.100000)"
fill="#000000" stroke="none">
<path d="M3850 4760 c-212 -21 -391 -171 -445 -375 -22 -84 -20 -216 5 -297
134 -435 753 -486 953 -78 184 375 -99 790 -513 750z"/>
<path d="M2850 4189 c-30 -5 -77 -20 -105 -33 -52 -23 -1043 -640 -1173 -729
-275 -189 -353 -522 -178 -760 42 -58 305 -240 744 -515 101 -63 182 -118 180
-122 -2 -5 -151 -163 -333 -351 -181 -188 -344 -362 -361 -388 -102 -150 -54
-358 104 -444 68 -37 137 -49 209 -36 113 21 88 -2 811 750 194 201 364 381
377 400 84 113 66 297 -39 402 -18 18 -160 107 -314 197 l-282 163 128 79 c70
44 154 97 187 117 l60 38 0 -81 c0 -64 5 -90 22 -122 28 -53 105 -121 152
-134 30 -9 674 -117 953 -161 98 -15 156 -6 215 34 70 47 107 113 111 199 7
118 -47 214 -146 256 -28 12 -186 43 -397 77 -192 32 -354 61 -358 65 -7 6 9
189 43 475 17 143 3 185 -127 383 -82 124 -148 184 -246 220 -65 25 -165 33
-237 21z"/>
<path d="M865 2406 c-372 -61 -687 -323 -809 -672 -47 -133 -59 -224 -53 -388
4 -124 10 -167 31 -241 71 -239 220 -443 423 -578 300 -199 691 -225 1019 -67
78 38 244 152 244 167 0 5 -27 21 -61 36 -35 16 -88 55 -128 93 -38 35 -72 64
-75 64 -4 0 -27 -13 -50 -29 -106 -74 -239 -113 -376 -113 -168 0 -316 51
-444 155 -174 140 -268 336 -267 557 1 310 195 574 496 676 69 23 97 27 200
28 141 0 211 -15 332 -75 125 -62 251 -186 313 -309 12 -25 24 -47 27 -50 5
-5 233 222 233 233 0 21 -109 163 -174 227 -149 146 -311 233 -509 275 -100
22 -277 27 -372 11z"/>
<path d="M3928 2405 c-435 -68 -781 -416 -853 -855 -74 -459 162 -902 587
-1099 163 -76 339 -106 528 -89 421 37 773 328 896 743 36 122 45 349 19 476
-112 555 -620 910 -1177 824z m377 -340 c299 -98 495 -365 496 -675 1 -221
-93 -417 -267 -557 -128 -104 -276 -155 -444 -155 -120 0 -199 19 -320 79
-165 81 -298 237 -356 418 -129 403 128 824 557 915 79 17 245 4 334 -25z"/>
</g>
</svg>
