<?xml version="1.0" standalone="no"?>
<!DOCTYPE svg PUBLIC "-//W3C//DTD SVG 20010904//EN"
 "http://www.w3.org/TR/2001/REC-SVG-20010904/DTD/svg10.dtd">
<svg version="1.0" xmlns="http://www.w3.org/2000/svg"
 width="512.000000pt" height="512.000000pt" viewBox="0 0 512.000000 512.000000"
 preserveAspectRatio="xMidYMid meet">
<metadata>
Created by potrace 1.16, written by Peter Selinger 2001-2019
</metadata>
<g transform="translate(0.000000,512.000000) scale(0.100000,-0.100000)"
fill="#000000" stroke="none">
<path d="M2455 4789 c-244 -31 -416 -119 -561 -287 -78 -91 -90 -117 -110
-236 -31 -187 -28 -784 6 -1231 9 -127 -1 -159 -48 -153 -23 3 -35 18 -84 113
-123 237 -193 485 -207 735 l-6 115 -75 3 c-195 8 -341 -65 -390 -196 -18 -46
-20 -78 -20 -260 0 -228 13 -400 35 -478 30 -104 176 -373 316 -585 77 -115
157 -241 179 -281 54 -101 90 -232 97 -350 l6 -98 967 0 967 0 58 122 c231
489 428 1046 514 1453 50 238 65 363 65 565 0 274 -37 426 -140 582 -152 228
-519 404 -968 463 -128 17 -480 19 -601 4z"/>
<path d="M1600 800 l0 -480 995 0 c983 0 995 0 1050 21 74 28 146 100 174 174
19 51 21 77 21 285 0 208 -2 234 -21 285 -28 74 -100 146 -174 174 -55 21 -67
21 -1050 21 l-995 0 0 -480z m1920 0 l0 -160 -240 0 -240 0 0 160 0 160 240 0
240 0 0 -160z"/>
</g>
</svg>
