<?xml version="1.0" standalone="no"?>
<!DOCTYPE svg PUBLIC "-//W3C//DTD SVG 20010904//EN"
 "http://www.w3.org/TR/2001/REC-SVG-20010904/DTD/svg10.dtd">
<svg version="1.0" xmlns="http://www.w3.org/2000/svg"
 width="512.000000pt" height="512.000000pt" viewBox="0 0 512.000000 512.000000"
 preserveAspectRatio="xMidYMid meet">
<metadata>
Created by potrace 1.16, written by Peter Selinger 2001-2019
</metadata>
<g transform="translate(0.000000,512.000000) scale(0.100000,-0.100000)"
fill="#000000" stroke="none">
<path d="M807 5113 c-2 -5 -12 -32 -22 -61 -9 -29 -22 -55 -29 -58 -6 -2 -38
5 -70 16 -79 27 -90 18 -81 -66 8 -73 6 -75 -80 -89 -74 -12 -79 -27 -36 -97
17 -27 31 -54 31 -59 0 -5 -25 -25 -55 -44 -72 -46 -72 -65 0 -110 30 -20 55
-41 55 -48 0 -7 -14 -32 -30 -57 -16 -25 -30 -53 -30 -63 0 -21 38 -37 89 -37
54 0 63 -15 55 -93 -6 -59 -5 -65 13 -71 11 -3 44 2 75 13 30 10 60 16 66 12
6 -3 18 -29 27 -56 18 -53 32 -75 47 -75 5 0 31 20 57 45 26 25 52 45 56 45 4
0 30 -20 56 -45 26 -25 52 -45 57 -45 15 0 39 33 46 63 5 21 10 26 19 19 7 -5
215 -152 462 -327 248 -175 456 -323 463 -330 11 -10 9 -19 -12 -49 -46 -69
-52 -178 -13 -252 9 -18 35 -48 57 -66 l40 -35 0 -121 0 -122 -166 -417 c-92
-230 -171 -434 -176 -453 -19 -71 14 -105 122 -130 30 -6 72 -16 93 -21 l37
-10 0 -820 c0 -904 -3 -858 63 -928 46 -48 101 -71 175 -71 104 0 176 45 218
135 l24 50 0 763 0 762 45 0 44 0 3 -767 c3 -731 4 -770 22 -806 43 -88 123
-136 222 -137 114 0 208 73 233 181 7 28 11 343 11 841 l0 797 38 10 c20 6 60
15 87 22 92 22 125 49 125 101 0 13 -76 217 -170 453 l-170 428 0 131 0 131
45 43 c89 86 97 223 20 329 -18 24 -95 -34 680 515 l260 185 11 -34 c13 -37
32 -63 46 -63 5 0 31 20 57 45 26 25 52 45 56 45 4 0 30 -20 56 -45 26 -25 52
-45 57 -45 15 0 29 22 47 75 9 27 21 53 27 56 6 4 36 -2 66 -12 31 -11 64 -16
75 -13 18 6 19 12 13 71 -8 78 1 93 55 93 51 0 89 16 89 37 0 10 -14 38 -30
63 -16 25 -30 50 -30 57 0 7 25 28 55 48 36 23 55 41 55 55 0 13 -19 31 -55
55 -30 19 -55 39 -55 44 0 5 14 32 31 59 43 70 38 85 -36 97 -86 14 -88 16
-80 89 9 85 -1 93 -84 65 -38 -13 -66 -18 -72 -12 -5 5 -17 33 -27 63 -25 73
-51 78 -107 20 -21 -22 -45 -40 -52 -40 -7 0 -30 18 -53 41 -54 55 -78 51
-103 -16 -28 -76 -33 -79 -100 -56 -83 29 -91 23 -85 -61 4 -44 1 -71 -6 -76
-6 -4 -38 -11 -71 -17 -74 -12 -80 -31 -37 -101 17 -26 28 -53 25 -60 -3 -7
-25 -25 -49 -39 -59 -35 -70 -56 -41 -82 12 -11 36 -28 54 -39 42 -23 46 -37
20 -62 -12 -10 -217 -157 -455 -326 l-433 -306 -285 0 -285 0 -432 306 c-238
168 -440 315 -449 325 -22 25 -16 40 25 63 18 11 42 28 54 39 29 26 18 47 -41
82 -24 14 -46 32 -49 39 -3 7 8 34 25 60 43 70 37 89 -37 101 -33 6 -65 13
-71 17 -7 5 -10 32 -6 76 6 84 -2 90 -85 61 -67 -23 -72 -20 -100 56 -25 67
-49 71 -103 16 -23 -23 -46 -41 -53 -41 -7 0 -31 18 -52 40 -36 37 -77 52 -88
33z"/>
<path d="M2443 4795 c-81 -22 -132 -52 -193 -114 -166 -166 -172 -428 -13
-601 196 -214 557 -174 697 76 75 134 75 305 1 435 -95 168 -304 254 -492 204z"/>
</g>
</svg>
