<?xml version="1.0" standalone="no"?>
<!DOCTYPE svg PUBLIC "-//W3C//DTD SVG 20010904//EN"
 "http://www.w3.org/TR/2001/REC-SVG-20010904/DTD/svg10.dtd">
<svg version="1.0" xmlns="http://www.w3.org/2000/svg"
 width="512.000000pt" height="512.000000pt" viewBox="0 0 512.000000 512.000000"
 preserveAspectRatio="xMidYMid meet">
<metadata>
Created by potrace 1.16, written by Peter Selinger 2001-2019
</metadata>
<g transform="translate(0.000000,512.000000) scale(0.100000,-0.100000)"
fill="#000000" stroke="none">
<path d="M1604 5095 c-15 -23 -15 -27 0 -49 8 -13 48 -44 87 -68 l71 -43 -6
-284 c-3 -156 -6 -367 -6 -468 l0 -183 -196 -217 c-109 -120 -197 -219 -198
-220 -1 0 -75 -9 -166 -18 -439 -43 -467 -50 -544 -135 -64 -72 -80 -134 -71
-269 3 -58 9 -108 11 -110 3 -3 48 38 101 90 53 51 90 83 82 69 -9 -14 -103
-171 -211 -350 -212 -350 -228 -388 -209 -466 12 -47 378 -807 413 -856 11
-16 39 -39 62 -53 54 -32 145 -36 200 -10 71 34 126 119 126 196 0 42 -19 87
-184 423 -85 175 -154 321 -152 325 20 40 361 620 363 618 1 -2 -36 -139 -82
-305 l-85 -302 110 -220 c61 -121 114 -220 118 -220 21 0 576 51 578 53 1 1
-27 279 -62 617 -35 338 -64 622 -64 631 0 9 99 126 221 260 131 144 230 262
242 289 20 43 21 63 25 440 l4 395 33 -38 c59 -69 92 -150 190 -472 53 -176
111 -347 128 -380 34 -64 81 -115 485 -527 225 -231 281 -299 314 -384 38 -97
39 -134 12 -648 -29 -552 -28 -623 9 -714 14 -34 127 -245 253 -468 194 -345
236 -414 287 -465 56 -56 85 -73 399 -230 377 -188 391 -193 450 -140 l33 29
3 2384 c2 1311 0 2402 -3 2425 -4 25 -16 51 -32 67 l-26 26 -1548 0 -1549 0
-16 -25z"/>
<path d="M904 4511 c-80 -29 -109 -47 -169 -105 -147 -144 -172 -376 -60 -551
166 -261 560 -265 731 -8 56 85 76 160 72 268 -3 79 -8 100 -39 165 -55 114
-144 193 -264 234 -66 22 -204 20 -271 -3z"/>
<path d="M1266 1893 c53 -121 67 -164 72 -220 5 -70 -8 -136 -44 -207 -14 -27
-22 -51 -19 -54 6 -6 778 -110 821 -111 11 -1 189 -119 395 -262 206 -144 389
-268 407 -275 138 -60 304 15 346 155 9 30 16 67 16 81 0 43 -26 118 -54 155
-25 32 -766 559 -863 613 -37 20 -106 32 -530 87 -268 35 -505 67 -526 70
l-37 5 16 -37z"/>
<path d="M1873 1114 c3 -10 65 -230 137 -488 72 -258 136 -478 142 -490 47
-90 125 -136 227 -136 123 0 215 67 247 179 21 72 17 100 -64 386 l-67 240
-215 152 c-118 83 -228 154 -245 157 -16 3 -61 8 -99 12 -64 7 -68 6 -63 -12z"/>
</g>
</svg>
