<?xml version="1.0" standalone="no"?>
<!DOCTYPE svg PUBLIC "-//W3C//DTD SVG 20010904//EN"
 "http://www.w3.org/TR/2001/REC-SVG-20010904/DTD/svg10.dtd">
<svg version="1.0" xmlns="http://www.w3.org/2000/svg"
 width="512.000000pt" height="512.000000pt" viewBox="0 0 512.000000 512.000000"
 preserveAspectRatio="xMidYMid meet">
<metadata>
Created by potrace 1.16, written by Peter Selinger 2001-2019
</metadata>
<g transform="translate(0.000000,512.000000) scale(0.100000,-0.100000)"
fill="#000000" stroke="none">
<path d="M2695 4934 c-386 -41 -691 -140 -990 -322 -491 -298 -859 -791 -1004
-1342 -58 -223 -66 -291 -66 -580 0 -211 4 -285 18 -365 90 -501 311 -918 668
-1260 338 -325 756 -529 1229 -602 159 -24 491 -24 650 0 479 74 892 277 1234
607 193 186 330 371 448 605 105 208 171 407 215 650 26 144 26 586 0 730 -91
503 -311 917 -671 1263 -334 321 -753 526 -1216 597 -101 15 -432 28 -515 19z
m-873 -1521 c24 -22 23 -35 -8 -80 -75 -110 50 -236 161 -163 50 33 95 21 95
-25 0 -46 -86 -95 -167 -95 -177 0 -277 213 -161 345 33 39 52 43 80 18z m406
-405 c18 -18 15 -45 -9 -77 -25 -34 -28 -101 -5 -136 37 -57 117 -69 173 -26
34 28 59 26 79 -5 16 -24 16 -27 -3 -51 -44 -60 -144 -87 -218 -58 -93 35
-146 107 -147 199 -1 109 80 204 130 154z m-550 -134 c27 -19 28 -44 1 -77
-46 -60 -29 -151 36 -181 46 -22 71 -20 123 10 37 22 48 24 68 15 18 -8 24
-19 24 -41 0 -25 -8 -35 -46 -60 -94 -59 -198 -46 -272 35 -79 84 -81 202 -6
281 36 39 41 40 72 18z m958 -275 c18 -20 18 -21 -9 -69 -38 -68 -36 -113 7
-156 28 -28 41 -34 78 -34 26 0 55 8 73 20 50 33 95 21 95 -25 0 -46 -86 -95
-167 -95 -153 1 -256 159 -194 297 36 79 80 103 117 62z m-548 -131 c18 -18
15 -49 -8 -83 -12 -18 -20 -47 -20 -73 0 -37 6 -50 34 -78 43 -43 92 -46 151
-9 49 30 50 30 75 5 26 -26 25 -44 -2 -71 -135 -129 -358 -31 -358 156 0 107
79 202 128 153z m-534 -159 c7 -21 5 -32 -12 -54 -68 -86 -7 -206 99 -192 20
3 51 15 68 28 25 18 35 21 54 12 85 -39 -21 -143 -143 -143 -81 1 -178 79
-200 162 -19 69 0 143 50 196 30 31 71 27 84 -9z m1474 -105 c28 -20 28 -31
-5 -94 -25 -49 -26 -54 -12 -92 8 -23 26 -50 41 -61 36 -27 101 -26 138 2 38
28 66 27 85 -3 22 -33 8 -58 -51 -92 -82 -48 -198 -31 -260 38 -64 70 -77 173
-30 251 23 40 48 66 66 67 3 0 16 -7 28 -16z m-538 -144 c25 -25 25 -27 -5
-75 -36 -59 -34 -108 9 -151 28 -28 41 -34 78 -34 25 0 56 8 76 20 37 23 63
25 80 8 48 -48 -50 -131 -153 -131 -184 0 -283 224 -158 356 32 32 46 34 73 7z
m-549 -130 c25 -14 25 -55 -1 -87 -14 -18 -20 -41 -20 -75 0 -41 5 -54 29 -79
24 -24 38 -29 77 -29 30 0 59 7 81 21 39 25 78 19 88 -12 20 -63 -108 -130
-208 -107 -157 35 -222 235 -114 351 28 30 39 32 68 17z m1503 -141 c16 -23
12 -41 -16 -78 -28 -37 -24 -104 10 -141 40 -46 96 -51 157 -15 44 25 48 26
71 11 48 -32 15 -89 -72 -122 -192 -73 -365 158 -244 325 34 47 70 54 94 20z
m-546 -131 c18 -18 15 -46 -10 -80 -14 -21 -21 -46 -21 -76 0 -39 4 -49 36
-79 47 -42 95 -45 150 -7 42 28 70 26 88 -8 15 -28 -13 -66 -71 -95 -136 -70
-301 36 -301 192 0 105 81 201 129 153z m-544 -144 c21 -21 20 -32 -9 -79 -14
-22 -25 -53 -25 -68 0 -63 54 -117 116 -117 15 0 47 12 72 26 37 22 48 24 68
15 17 -7 24 -19 24 -39 0 -35 -20 -54 -85 -83 -168 -75 -351 108 -276 276 12
27 29 57 38 67 20 22 56 23 77 2z"/>
<path d="M22 704 c-25 -17 -31 -71 -10 -92 9 -9 117 -12 424 -12 l413 0 15 22
c22 31 20 45 -9 73 l-24 25 -393 0 c-340 0 -397 -2 -416 -16z"/>
<path d="M16 284 c-23 -22 -21 -81 3 -94 12 -6 104 -10 228 -10 233 0 246 3
246 60 0 57 -12 60 -249 60 -180 0 -215 -2 -228 -16z"/>
</g>
</svg>
