<?xml version="1.0" standalone="no"?>
<!DOCTYPE svg PUBLIC "-//W3C//DTD SVG 20010904//EN"
 "http://www.w3.org/TR/2001/REC-SVG-20010904/DTD/svg10.dtd">
<svg version="1.0" xmlns="http://www.w3.org/2000/svg"
 width="512.000000pt" height="512.000000pt" viewBox="0 0 512.000000 512.000000"
 preserveAspectRatio="xMidYMid meet">
<metadata>
Created by potrace 1.16, written by Peter Selinger 2001-2019
</metadata>
<g transform="translate(0.000000,512.000000) scale(0.100000,-0.100000)"
fill="#000000" stroke="none">
<path d="M2090 4723 c-333 -50 -639 -182 -870 -373 -176 -146 -229 -232 -255
-410 -39 -264 -89 -452 -180 -674 -111 -272 -140 -421 -132 -689 8 -280 47
-414 137 -473 30 -20 120 -46 367 -105 669 -161 968 -246 1216 -343 257 -102
641 -215 920 -271 l137 -28 0 -339 0 -338 -1035 0 -1035 0 0 280 0 280 98 0
c71 0 103 4 119 15 12 8 44 61 72 118 27 56 60 119 72 139 13 21 21 40 18 42
-11 11 -949 240 -956 233 -2 -2 4 -51 13 -108 8 -57 17 -165 18 -240 4 -189
12 -199 150 -199 l86 0 0 -280 0 -280 -477 0 c-451 0 -480 -1 -507 -19 -46
-31 -66 -69 -66 -131 0 -62 20 -100 66 -131 28 -18 92 -19 2304 -19 2510 0
2326 -5 2454 62 83 44 192 155 233 238 51 103 66 177 61 305 -8 169 -47 252
-200 418 l-78 84 50 97 c146 287 89 509 -167 653 -36 20 -190 94 -342 165
-440 205 -595 292 -777 433 -91 72 -216 191 -292 280 l-51 60 -108 -106 c-122
-121 -158 -144 -215 -136 -100 13 -154 108 -114 200 8 18 72 90 143 160 l129
128 -54 110 -54 111 -97 -96 c-100 -98 -129 -116 -184 -116 -67 0 -137 71
-137 138 0 58 27 96 172 238 l140 138 -38 129 -38 128 -120 -120 c-122 -121
-152 -141 -209 -141 -67 0 -137 71 -137 138 0 58 27 95 164 230 100 98 141
132 170 141 22 5 43 8 48 5 13 -8 9 14 -8 49 -49 95 -157 185 -261 217 -79 24
-219 26 -363 3z m2575 -3500 c125 -146 145 -185 145 -272 -1 -111 -56 -199
-152 -242 -53 -24 -55 -24 -485 -27 l-433 -3 0 330 0 331 413 0 412 0 100
-117z"/>
</g>
</svg>
