<?xml version="1.0" standalone="no"?>
<!DOCTYPE svg PUBLIC "-//W3C//DTD SVG 20010904//EN"
 "http://www.w3.org/TR/2001/REC-SVG-20010904/DTD/svg10.dtd">
<svg version="1.0" xmlns="http://www.w3.org/2000/svg"
 width="512.000000pt" height="512.000000pt" viewBox="0 0 512.000000 512.000000"
 preserveAspectRatio="xMidYMid meet">
<metadata>
Created by potrace 1.16, written by Peter Selinger 2001-2019
</metadata>
<g transform="translate(0.000000,512.000000) scale(0.100000,-0.100000)"
fill="#000000" stroke="none">
<path d="M3008 5097 c-145 -61 -230 -189 -230 -347 0 -165 100 -305 254 -356
76 -25 208 -16 279 19 70 34 142 106 177 177 24 49 27 66 27 160 0 94 -3 111
-27 160 -35 71 -107 143 -178 178 -46 23 -70 27 -150 30 -81 2 -103 -1 -152
-21z"/>
<path d="M4015 5096 c-40 -18 -59 -41 -221 -261 -76 -104 -201 -270 -276 -367
l-138 -177 -228 6 c-221 6 -368 -3 -465 -28 -54 -14 -94 -53 -198 -197 -298
-408 -548 -723 -666 -838 -114 -111 -136 -171 -93 -259 44 -92 156 -125 250
-75 74 39 195 171 415 451 l130 166 3 -49 c2 -27 -1 -166 -7 -309 l-9 -260
-364 -549 c-199 -303 -367 -550 -371 -550 -4 0 -124 74 -266 165 -308 197
-332 209 -415 203 -100 -7 -173 -54 -217 -140 -44 -86 -30 -212 31 -282 32
-35 771 -515 837 -542 25 -11 59 -15 109 -12 127 6 110 -12 622 651 435 561
456 587 473 570 9 -10 165 -209 346 -443 l329 -425 52 -630 c29 -347 57 -647
64 -668 28 -92 135 -167 237 -167 84 0 130 18 186 75 59 58 75 102 75 201 -1
144 -107 1348 -122 1384 -8 20 -147 235 -308 478 l-293 443 17 437 c23 588 35
812 45 849 5 16 57 90 116 164 107 132 442 577 524 694 44 64 58 112 47 170
-8 43 -59 103 -103 121 -41 18 -109 17 -148 0z"/>
<path d="M2806 784 c-192 -61 -311 -253 -278 -449 21 -130 110 -248 226 -302
55 -25 71 -28 171 -28 104 0 114 2 176 32 244 121 301 452 110 643 -76 76
-163 113 -271 117 -57 2 -101 -2 -134 -13z"/>
</g>
</svg>
