<?xml version="1.0" standalone="no"?>
<!DOCTYPE svg PUBLIC "-//W3C//DTD SVG 20010904//EN"
 "http://www.w3.org/TR/2001/REC-SVG-20010904/DTD/svg10.dtd">
<svg version="1.0" xmlns="http://www.w3.org/2000/svg"
 width="512.000000pt" height="512.000000pt" viewBox="0 0 512.000000 512.000000"
 preserveAspectRatio="xMidYMid meet">
<metadata>
Created by potrace 1.16, written by Peter Selinger 2001-2019
</metadata>
<g transform="translate(0.000000,512.000000) scale(0.100000,-0.100000)"
fill="#000000" stroke="none">
<path d="M3643 5104 c-128 -17 -379 -81 -509 -129 -857 -319 -1652 -1066
-2042 -1919 -111 -245 -194 -526 -223 -759 -17 -141 -6 -446 20 -558 104 -451
399 -745 850 -851 126 -29 434 -36 596 -13 606 84 1259 439 1795 975 554 554
907 1219 981 1848 17 137 6 434 -19 542 -71 302 -216 522 -447 677 -135 91
-308 161 -463 188 -107 19 -398 18 -539 -1z m128 -639 c146 -38 271 -127 351
-249 119 -184 129 -460 28 -769 -159 -488 -582 -1013 -1095 -1358 -229 -154
-523 -279 -736 -314 -286 -46 -490 6 -649 165 -129 128 -174 254 -173 475 1
210 48 386 173 640 123 251 300 491 537 730 228 230 435 381 708 515 218 108
358 154 560 184 57 8 233 -3 296 -19z m994 -1140 c34 -33 32 -66 -9 -166 -294
-724 -859 -1362 -1553 -1751 -197 -110 -442 -218 -495 -218 -34 0 -78 39 -78
70 0 48 27 76 102 105 274 106 592 290 839 486 130 103 404 372 512 502 209
252 389 548 507 835 27 64 58 127 70 139 29 31 74 30 105 -2z"/>
<path d="M3405 4305 c-121 -23 -253 -71 -425 -156 -268 -133 -443 -263 -680
-505 -215 -220 -369 -433 -485 -669 -196 -398 -206 -760 -27 -927 93 -87 187
-118 357 -118 177 1 342 45 560 150 250 121 461 275 691 505 342 341 568 721
640 1075 23 117 16 313 -15 393 -42 108 -129 193 -240 238 -73 29 -258 35
-376 14z m-824 -794 c48 -48 41 -69 -67 -184 -90 -96 -205 -247 -275 -361 -62
-102 -79 -119 -121 -119 -38 0 -78 41 -78 81 0 60 213 364 365 520 103 105
125 113 176 63z"/>
<path d="M352 1457 l-352 -353 0 -42 c0 -59 33 -92 92 -92 42 0 43 0 355 312
218 218 311 317 307 328 -3 8 -14 55 -24 104 -11 48 -20 90 -22 92 -2 2 -162
-155 -356 -349z"/>
<path d="M717 852 c-276 -277 -277 -278 -277 -320 0 -59 33 -92 92 -92 42 0
43 1 323 280 l280 280 -65 65 c-35 36 -67 65 -70 65 -3 0 -130 -125 -283 -278z"/>
<path d="M1278 443 c-307 -308 -308 -309 -308 -351 0 -59 33 -92 92 -92 l42 0
354 353 354 354 -89 18 c-48 10 -99 20 -113 22 -22 4 -67 -38 -332 -304z"/>
<path d="M215 341 c-16 -10 -72 -61 -122 -113 -89 -91 -93 -97 -93 -140 0 -60
29 -88 90 -88 43 0 47 3 151 108 64 63 110 118 114 135 10 37 -12 85 -46 102
-37 20 -58 19 -94 -4z"/>
</g>
</svg>
