<?xml version="1.0" standalone="no"?>
<!DOCTYPE svg PUBLIC "-//W3C//DTD SVG 20010904//EN"
 "http://www.w3.org/TR/2001/REC-SVG-20010904/DTD/svg10.dtd">
<svg version="1.0" xmlns="http://www.w3.org/2000/svg"
 width="512.000000pt" height="512.000000pt" viewBox="0 0 512.000000 512.000000"
 preserveAspectRatio="xMidYMid meet">
<metadata>
Created by potrace 1.16, written by Peter Selinger 2001-2019
</metadata>
<g transform="translate(0.000000,512.000000) scale(0.100000,-0.100000)"
fill="#000000" stroke="none">
<path d="M1488 4745 l-3 -376 -67 -23 c-128 -45 -235 -140 -298 -264 -56 -110
-71 -231 -46 -354 39 -183 175 -337 349 -396 32 -11 62 -23 66 -28 4 -5 117
-274 251 -599 134 -324 246 -593 249 -597 4 -4 28 24 53 63 l47 71 -35 46
c-83 109 -124 235 -124 384 0 117 28 218 90 320 22 37 40 72 40 78 0 6 -31 84
-68 173 l-68 163 56 56 c95 94 160 247 160 378 0 65 -25 170 -55 233 -58 123
-175 228 -303 273 l-67 23 -3 376 -2 375 -110 0 -110 0 -2 -375z m250 -624
c101 -52 163 -145 170 -256 5 -85 -7 -136 -49 -199 -45 -68 -63 -77 -122 -63
-59 13 -125 -1 -174 -39 -39 -29 -52 -30 -104 -4 -56 29 -117 93 -145 153 -26
57 -32 152 -14 219 24 85 118 181 204 208 54 17 186 6 234 -19z"/>
<path d="M3408 4745 l-3 -376 -67 -23 c-80 -28 -180 -97 -230 -158 -76 -92
-128 -234 -128 -348 0 -131 65 -284 160 -378 l56 -56 -108 -261 c-59 -143
-113 -271 -119 -284 -10 -24 -11 -24 -38 25 -139 242 -487 283 -680 79 -74
-78 -112 -164 -118 -268 -12 -181 74 -334 229 -412 39 -19 79 -35 89 -35 11 0
19 -4 19 -10 0 -5 -8 -10 -19 -10 -10 0 -50 -16 -89 -35 -75 -38 -148 -108
-182 -174 -49 -98 -50 -108 -50 -708 l0 -563 -784 -2 -784 -3 -44 -30 c-136
-97 -124 -301 24 -376 37 -19 62 -19 1085 -17 l1048 3 66 31 c116 55 192 142
229 262 19 61 20 95 20 604 l0 541 311 751 c171 413 316 762 322 774 8 16 31
30 72 44 174 58 312 214 351 396 17 84 17 139 0 224 -39 182 -171 333 -344
394 l-67 23 -3 376 -2 375 -110 0 -110 0 -2 -375z m250 -624 c54 -28 115 -88
144 -143 19 -36 23 -58 23 -138 0 -80 -4 -102 -23 -138 -29 -54 -90 -115 -141
-142 -52 -26 -65 -25 -104 4 -49 38 -115 52 -174 39 -38 -9 -52 -9 -68 1 -27
18 -74 86 -91 133 -16 45 -18 144 -4 195 24 85 118 181 204 208 54 17 186 6
234 -19z"/>
<path d="M3190 702 c0 -99 -53 -240 -125 -335 l-36 -47 756 0 c732 0 757 1
794 20 146 74 158 279 23 375 l-44 30 -684 3 -684 2 0 -48z"/>
</g>
</svg>
