<?xml version="1.0" standalone="no"?>
<!DOCTYPE svg PUBLIC "-//W3C//DTD SVG 20010904//EN"
 "http://www.w3.org/TR/2001/REC-SVG-20010904/DTD/svg10.dtd">
<svg version="1.0" xmlns="http://www.w3.org/2000/svg"
 width="512.000000pt" height="512.000000pt" viewBox="0 0 512.000000 512.000000"
 preserveAspectRatio="xMidYMid meet">
<metadata>
Created by potrace 1.16, written by Peter Selinger 2001-2019
</metadata>
<g transform="translate(0.000000,512.000000) scale(0.100000,-0.100000)"
fill="#000000" stroke="none">
<path d="M1783 5106 c-167 -54 -276 -190 -299 -372 -12 -97 31 -229 102 -312
35 -41 108 -98 134 -104 8 -2 19 25 31 77 24 99 56 154 116 200 115 88 277 73
381 -34 22 -23 42 -41 46 -41 3 0 13 25 22 56 12 41 15 83 12 149 -3 79 -8
102 -36 157 -41 83 -117 160 -201 200 -58 29 -75 33 -165 35 -65 2 -116 -2
-143 -11z"/>
<path d="M2512 4880 c-18 -4 -35 -10 -38 -13 -3 -3 -1 -29 5 -57 15 -69 14
-163 -3 -234 l-14 -59 97 -121 c53 -67 100 -126 104 -132 7 -13 7 -12 -167 22
-65 13 -126 24 -136 24 -12 0 -67 -103 -200 -375 -101 -206 -185 -373 -187
-372 -1 2 51 165 117 363 126 377 138 431 106 492 -19 36 -65 78 -99 91 -72
28 -176 -2 -219 -61 -12 -17 -66 -164 -120 -327 -54 -163 -96 -278 -93 -256 3
22 12 96 20 164 9 68 15 125 13 126 -2 2 -80 -39 -173 -91 -184 -102 -249
-155 -260 -215 -6 -31 118 -807 145 -909 17 -64 108 -130 178 -130 16 0 53 12
83 28 45 23 58 35 79 79 14 29 28 52 31 53 3 0 61 -106 127 -235 l122 -235 0
-1148 c0 -1284 -4 -1205 71 -1281 55 -55 111 -74 198 -69 58 3 78 9 113 34 23
16 56 49 73 73 l30 43 3 1212 2 1212 351 83 c193 46 352 81 354 80 1 -2 -69
-211 -157 -464 -157 -449 -161 -462 -162 -546 -1 -79 1 -89 29 -134 77 -125
254 -153 365 -58 22 19 49 52 60 72 10 21 125 348 256 727 206 597 238 697
238 749 0 142 -99 244 -238 245 -38 0 -165 -25 -363 -71 -168 -39 -308 -67
-313 -63 -15 17 -381 687 -377 690 2 3 123 -19 268 -47 145 -28 287 -51 314
-52 79 0 138 40 170 115 21 52 19 97 -7 149 -13 24 -159 213 -325 420 -245
304 -310 379 -340 392 -51 21 -91 27 -131 17z"/>
</g>
</svg>
