<?xml version="1.0" standalone="no"?>
<!DOCTYPE svg PUBLIC "-//W3C//DTD SVG 20010904//EN"
 "http://www.w3.org/TR/2001/REC-SVG-20010904/DTD/svg10.dtd">
<svg version="1.0" xmlns="http://www.w3.org/2000/svg"
 width="512.000000pt" height="512.000000pt" viewBox="0 0 512.000000 512.000000"
 preserveAspectRatio="xMidYMid meet">
<metadata>
Created by potrace 1.16, written by Peter Selinger 2001-2019
</metadata>
<g transform="translate(0.000000,512.000000) scale(0.100000,-0.100000)"
fill="#000000" stroke="none">
<path d="M3039 4999 c-132 -11 -262 -64 -379 -155 -30 -23 -332 -321 -672
-661 -431 -433 -628 -637 -657 -682 -106 -167 -157 -410 -132 -631 18 -148 52
-255 134 -420 l72 -145 0 -115 c0 -107 -2 -120 -31 -185 -17 -38 -54 -105 -82
-149 -44 -66 -52 -86 -52 -125 l0 -46 222 -222 223 -223 46 0 c39 0 59 8 125
52 148 97 269 133 398 116 42 -6 99 -28 200 -78 164 -81 274 -115 425 -131
241 -26 499 37 667 165 33 25 338 325 680 668 674 677 683 687 740 853 36 105
45 285 20 398 -18 80 -66 189 -117 265 -41 60 -1214 1238 -1294 1299 -158 119
-331 169 -536 152z m170 -94 c74 -8 172 -47 250 -100 131 -88 1259 -1216 1347
-1346 69 -105 96 -185 101 -309 6 -127 -10 -198 -69 -315 -40 -77 -66 -104
-707 -746 -644 -644 -669 -667 -746 -706 -142 -72 -235 -94 -397 -94 -194 0
-292 26 -526 144 l-164 82 -93 3 c-137 5 -252 -29 -378 -112 -30 -20 -60 -36
-68 -36 -18 0 -389 371 -389 389 0 8 13 35 29 60 89 139 137 295 127 412 -8
93 -27 146 -89 257 -56 100 -93 189 -124 302 -13 50 -17 104 -17 230 -1 155 1
170 27 245 55 157 46 146 741 843 676 678 715 713 848 766 63 25 181 46 223
40 11 -1 44 -6 74 -9z"/>
<path d="M2970 4821 c-148 -47 -140 -40 -823 -720 -681 -679 -713 -714 -758
-852 -21 -66 -24 -91 -24 -234 0 -137 3 -172 23 -239 29 -100 69 -192 121
-281 119 -200 115 -394 -12 -638 l-51 -98 157 -157 c151 -151 158 -156 179
-143 144 90 268 131 400 131 106 0 184 -25 338 -110 122 -68 233 -105 359
-120 167 -21 368 19 509 101 42 25 226 202 703 679 589 589 649 651 681 715
51 100 68 165 68 265 0 101 -17 166 -68 265 -32 60 -89 123 -402 444 -201 205
-489 494 -641 640 -293 283 -337 317 -468 355 -74 22 -219 20 -291 -3z"/>
<path d="M860 1228 c-206 -198 -437 -421 -514 -496 l-139 -134 194 -194 c107
-107 197 -193 200 -192 5 2 632 651 953 986 l40 42 -174 175 c-96 96 -177 175
-180 175 -3 0 -174 -163 -380 -362z"/>
<path d="M4185 1381 c-223 -65 -393 -238 -450 -460 -31 -122 -18 -298 31 -417
28 -68 103 -172 161 -224 67 -59 185 -122 269 -144 81 -21 247 -21 328 0 167
43 325 168 404 320 52 102 72 183 72 304 0 121 -20 202 -72 304 -80 154 -243
281 -409 321 -88 20 -257 18 -334 -4z m225 -171 c11 -11 20 -33 20 -50 0 -17
-9 -39 -20 -50 -43 -43 -120 -11 -120 50 0 38 32 70 70 70 17 0 39 -9 50 -20z
m-320 -200 c11 -11 20 -33 20 -50 0 -17 -9 -39 -20 -50 -43 -43 -120 -11 -120
50 0 38 32 70 70 70 17 0 39 -9 50 -20z m640 0 c11 -11 20 -33 20 -50 0 -17
-9 -39 -20 -50 -43 -43 -120 -11 -120 50 0 38 32 70 70 70 17 0 39 -9 50 -20z
m-320 -200 c11 -11 20 -33 20 -50 0 -17 -9 -39 -20 -50 -43 -43 -120 -11 -120
50 0 38 32 70 70 70 17 0 39 -9 50 -20z m-320 -160 c43 -43 11 -120 -50 -120
-38 0 -70 32 -70 70 0 38 32 70 70 70 17 0 39 -9 50 -20z m640 0 c43 -43 11
-120 -50 -120 -38 0 -70 32 -70 70 0 38 32 70 70 70 17 0 39 -9 50 -20z m-320
-240 c43 -43 11 -120 -50 -120 -38 0 -70 32 -70 70 0 38 32 70 70 70 17 0 39
-9 50 -20z"/>
<path d="M145 526 c-39 -58 -37 -112 4 -179 27 -44 179 -190 218 -211 44 -22
111 -20 152 5 l34 21 -194 194 c-107 107 -195 194 -196 194 -1 0 -10 -11 -18
-24z"/>
</g>
</svg>
