<?xml version="1.0" standalone="no"?>
<!DOCTYPE svg PUBLIC "-//W3C//DTD SVG 20010904//EN"
 "http://www.w3.org/TR/2001/REC-SVG-20010904/DTD/svg10.dtd">
<svg version="1.0" xmlns="http://www.w3.org/2000/svg"
 width="512.000000pt" height="512.000000pt" viewBox="0 0 512.000000 512.000000"
 preserveAspectRatio="xMidYMid meet">
<metadata>
Created by potrace 1.16, written by Peter Selinger 2001-2019
</metadata>
<g transform="translate(0.000000,512.000000) scale(0.100000,-0.100000)"
fill="#000000" stroke="none">
<path d="M2145 4625 c-171 -16 -274 -30 -425 -56 -811 -143 -1436 -501 -1645
-941 -59 -125 -78 -220 -73 -372 4 -115 9 -143 37 -225 128 -378 524 -690
1132 -895 838 -282 1940 -282 2778 0 608 205 1004 517 1132 895 28 82 33 110
37 225 4 110 1 144 -17 215 -44 176 -136 324 -298 480 -334 321 -914 557
-1598 649 -300 40 -771 51 -1060 25z"/>
<path d="M0 2124 c0 -369 2 -407 20 -480 44 -171 137 -321 297 -475 590 -567
1889 -828 3083 -618 810 143 1437 501 1645 941 71 150 75 183 75 632 l0 401
-97 -96 c-122 -119 -170 -158 -307 -248 -373 -246 -931 -433 -1501 -505 -411
-52 -899 -52 -1310 0 -570 72 -1128 259 -1501 505 -137 90 -185 129 -306 248
l-98 96 0 -401z"/>
</g>
</svg>
