<?xml version="1.0" standalone="no"?>
<!DOCTYPE svg PUBLIC "-//W3C//DTD SVG 20010904//EN"
 "http://www.w3.org/TR/2001/REC-SVG-20010904/DTD/svg10.dtd">
<svg version="1.0" xmlns="http://www.w3.org/2000/svg"
 width="512.000000pt" height="512.000000pt" viewBox="0 0 512.000000 512.000000"
 preserveAspectRatio="xMidYMid meet">
<metadata>
Created by potrace 1.16, written by Peter Selinger 2001-2019
</metadata>
<g transform="translate(0.000000,512.000000) scale(0.100000,-0.100000)"
fill="#000000" stroke="none">
<path d="M280 4988 c0 -227 -35 -767 -56 -872 l-6 -29 63 7 c275 31 511 236
579 502 17 65 20 111 20 291 l0 213 -300 0 -300 0 0 -112z"/>
<path d="M1210 4886 c0 -229 -10 -315 -54 -442 -87 -256 -293 -482 -544 -596
-92 -42 -239 -78 -349 -85 -51 -3 -93 -9 -93 -12 0 -3 -20 -112 -44 -241 -101
-539 -117 -679 -123 -1098 l-5 -332 2562 0 2562 0 -4 218 c-5 233 -18 300 -82
446 -84 189 -275 373 -491 471 -176 81 -340 113 -627 125 -185 8 -326 22 -454
46 l-31 6 -44 -221 c-25 -130 -48 -220 -54 -218 -5 2 -76 17 -157 33 -117 22
-148 31 -148 44 0 9 20 117 45 241 34 169 42 225 33 228 -7 2 -51 24 -97 48
-47 23 -87 39 -90 34 -3 -5 -53 -90 -111 -189 -104 -180 -105 -180 -130 -167
-14 7 -77 44 -141 82 l-116 68 119 204 119 204 -88 89 -89 89 -152 -156 -152
-156 -115 108 c-63 59 -115 112 -115 118 0 5 77 87 171 181 l171 171 -25 40
c-14 21 -41 71 -61 110 l-36 72 -142 -68 c-79 -37 -167 -80 -196 -95 -30 -15
-55 -26 -57 -24 -2 2 -34 68 -72 148 l-69 145 207 99 206 98 -14 47 c-12 39
-51 199 -69 279 l-4 22 -375 0 -375 0 0 -214z"/>
<path d="M130 1745 c0 -5 209 -448 214 -452 1 -2 27 15 57 38 74 56 191 114
296 146 79 24 103 27 243 27 140 0 164 -3 243 -27 149 -46 280 -121 382 -218
l40 -38 75 64 75 64 805 0 805 0 75 -64 74 -64 46 42 c106 99 229 168 377 214
79 24 103 27 243 27 140 0 164 -3 243 -27 105 -32 222 -90 296 -146 30 -23 56
-40 57 -38 5 5 214 446 214 451 0 3 -1093 6 -2430 6 -1337 0 -2430 -2 -2430
-5z"/>
<path d="M796 1164 c-248 -60 -436 -300 -436 -558 0 -271 176 -500 435 -566
368 -94 725 182 725 560 0 267 -186 504 -442 565 -78 18 -204 18 -282 -1z"/>
<path d="M4036 1164 c-157 -38 -303 -156 -374 -304 -51 -106 -67 -185 -59
-298 9 -147 65 -270 167 -372 144 -144 355 -201 555 -150 261 67 435 296 435
569 -1 260 -189 496 -442 556 -78 18 -204 18 -282 -1z"/>
</g>
</svg>
