<?xml version="1.0" standalone="no"?>
<!DOCTYPE svg PUBLIC "-//W3C//DTD SVG 20010904//EN"
 "http://www.w3.org/TR/2001/REC-SVG-20010904/DTD/svg10.dtd">
<svg version="1.0" xmlns="http://www.w3.org/2000/svg"
 width="512.000000pt" height="512.000000pt" viewBox="0 0 512.000000 512.000000"
 preserveAspectRatio="xMidYMid meet">
<metadata>
Created by potrace 1.16, written by Peter Selinger 2001-2019
</metadata>
<g transform="translate(0.000000,512.000000) scale(0.100000,-0.100000)"
fill="#000000" stroke="none">
<path d="M3944 5105 c-96 -17 -177 -41 -253 -76 -164 -75 -134 -46 -1858
-1771 -1078 -1080 -1643 -1652 -1666 -1688 -58 -93 -106 -195 -133 -287 -22
-72 -27 -115 -31 -234 -6 -167 3 -240 48 -375 99 -302 338 -534 659 -640 77
-25 101 -28 265 -32 201 -4 289 9 426 67 180 76 99 -1 1847 1745 893 892 1646
1650 1674 1686 63 82 141 241 170 345 18 68 22 107 22 260 1 158 -2 190 -22
265 -122 447 -525 754 -986 749 -50 0 -123 -7 -162 -14z m-29 -810 c35 -34 33
-78 -5 -117 -26 -25 -36 -29 -63 -24 -41 8 -77 48 -77 87 0 70 94 106 145 54z
m-387 -391 c29 -32 28 -76 -1 -110 -42 -49 -128 -27 -142 35 -9 43 2 69 38 92
39 24 73 18 105 -17z m759 17 c81 -50 20 -186 -69 -152 -73 28 -76 132 -4 161
31 13 38 12 73 -9z m-376 -400 c37 -38 39 -82 4 -116 -71 -72 -187 21 -129
103 33 48 84 53 125 13z m-2595 -1815 c57 -48 20 -146 -54 -146 -61 0 -100 61
-76 118 22 54 85 67 130 28z m-384 -396 c25 -26 29 -36 24 -63 -7 -36 -47 -77
-77 -77 -28 0 -75 26 -83 45 -13 35 -6 76 19 100 34 35 78 33 117 -5z m765 15
c75 -53 18 -174 -71 -151 -34 8 -68 62 -61 96 13 57 85 88 132 55z m-383 -397
c35 -32 41 -66 17 -105 -37 -59 -126 -49 -150 17 -28 81 69 145 133 88z"/>
<path d="M2728 4672 c-185 -185 -188 -188 -188 -230 0 -36 6 -49 41 -87 23
-25 47 -45 53 -45 14 0 456 441 456 456 0 13 -58 68 -87 83 -12 6 -36 11 -55
11 -29 0 -53 -20 -220 -188z"/>
<path d="M4535 2860 l-229 -230 39 -40 c47 -49 90 -65 131 -50 41 16 372 347
384 386 7 21 7 40 1 57 -10 26 -78 107 -90 107 -3 0 -110 -103 -236 -230z"/>
<path d="M408 2352 c-168 -167 -188 -191 -188 -220 0 -19 5 -43 11 -55 15 -30
70 -87 84 -87 14 0 455 442 455 456 0 6 -20 30 -45 53 -38 35 -51 41 -87 41
-42 0 -45 -3 -230 -188z"/>
<path d="M2215 539 l-230 -230 47 -43 c51 -47 87 -59 127 -45 15 6 106 90 203
187 187 186 204 212 178 263 -13 25 -80 99 -90 99 -3 0 -109 -104 -235 -231z"/>
</g>
</svg>
