<?xml version="1.0" standalone="no"?>
<!DOCTYPE svg PUBLIC "-//W3C//DTD SVG 20010904//EN"
 "http://www.w3.org/TR/2001/REC-SVG-20010904/DTD/svg10.dtd">
<svg version="1.0" xmlns="http://www.w3.org/2000/svg"
 width="512.000000pt" height="512.000000pt" viewBox="0 0 512.000000 512.000000"
 preserveAspectRatio="xMidYMid meet">
<metadata>
Created by potrace 1.16, written by Peter Selinger 2001-2019
</metadata>
<g transform="translate(0.000000,512.000000) scale(0.100000,-0.100000)"
fill="#000000" stroke="none">
<path d="M3235 5102 c-79 -30 -109 -48 -169 -103 -100 -91 -147 -200 -147
-340 -1 -265 201 -469 466 -469 217 0 412 157 456 368 25 120 -5 267 -75 369
-43 63 -133 135 -204 163 -80 33 -255 39 -327 12z"/>
<path d="M666 4726 c-47 -18 -104 -70 -122 -113 -35 -82 -6 -209 60 -257 31
-23 814 -386 890 -413 34 -12 73 -12 275 1 130 9 259 18 286 21 l50 5 -80 -30
-80 -30 -42 -118 c-22 -64 -118 -332 -212 -594 -94 -263 -175 -499 -180 -525
-10 -53 0 -125 24 -176 8 -18 129 -162 268 -322 l253 -290 -38 -120 c-297
-924 -283 -864 -225 -977 39 -75 98 -120 182 -139 101 -22 220 23 277 107 18
26 87 226 202 586 151 471 176 557 176 610 0 86 -28 141 -131 258 -46 51 -77
91 -69 88 71 -28 397 -171 403 -177 4 -4 -72 -192 -168 -417 -155 -359 -177
-417 -182 -477 -4 -50 -1 -78 12 -114 70 -182 306 -233 447 -96 32 31 73 119
280 602 l243 566 0 75 c0 58 -6 85 -23 117 -43 82 -75 102 -399 251 -169 78
-307 145 -306 149 3 14 336 758 342 765 4 4 85 -36 181 -88 96 -53 205 -111
242 -130 l67 -34 421 -40 c231 -22 433 -37 448 -34 105 26 172 110 172 218 -1
81 -65 170 -142 195 -18 6 -199 26 -402 46 l-369 35 -271 147 c-269 145 -271
147 -294 194 -33 69 -102 141 -169 176 -89 47 -368 162 -438 181 -59 15 -83
14 -471 -12 -225 -15 -420 -28 -434 -28 -14 -1 -203 81 -420 181 -423 195
-455 206 -534 177z"/>
<path d="M3585 1615 c-38 -13 -104 -39 -145 -58 l-75 -35 -84 -198 c-133 -315
-153 -354 -209 -415 -88 -97 -244 -159 -360 -144 -67 8 -154 38 -191 65 -16
11 -33 20 -38 20 -6 0 -18 -28 -29 -62 -51 -171 -209 -298 -388 -315 -155 -14
-325 71 -410 205 -49 78 -69 157 -63 257 2 50 8 99 12 109 8 17 5 19 -24 13
-17 -4 -114 -14 -214 -22 -100 -9 -205 -20 -234 -26 -174 -34 -341 -200 -382
-379 -6 -25 -11 -79 -11 -120 0 -143 48 -259 149 -361 104 -104 212 -149 360
-149 106 0 153 13 306 80 644 282 1350 460 2100 529 285 26 366 56 476 180
142 159 171 398 71 585 -36 68 -145 177 -209 210 -123 62 -283 74 -408 31z"/>
</g>
</svg>
