<?xml version="1.0" standalone="no"?>
<!DOCTYPE svg PUBLIC "-//W3C//DTD SVG 20010904//EN"
 "http://www.w3.org/TR/2001/REC-SVG-20010904/DTD/svg10.dtd">
<svg version="1.0" xmlns="http://www.w3.org/2000/svg"
 width="512.000000pt" height="512.000000pt" viewBox="0 0 512.000000 512.000000"
 preserveAspectRatio="xMidYMid meet">
<metadata>
Created by potrace 1.16, written by Peter Selinger 2001-2019
</metadata>
<g transform="translate(0.000000,512.000000) scale(0.100000,-0.100000)"
fill="#000000" stroke="none">
<path d="M2320 4943 c-102 -11 -296 -48 -404 -78 -334 -91 -662 -268 -935
-504 l-33 -29 12 -74 c62 -383 194 -787 374 -1148 395 -791 990 -1383 1787
-1782 336 -167 721 -295 1083 -358 l128 -23 24 29 c160 191 262 346 359 546
117 242 184 471 221 748 12 97 15 176 11 350 -5 243 -20 354 -76 566 -204 773
-809 1408 -1574 1653 -248 79 -471 112 -752 109 -104 0 -206 -3 -225 -5z
m1113 -397 c167 -81 231 -291 140 -458 -104 -192 -369 -225 -523 -67 -63 65
-94 139 -94 223 -1 91 24 161 75 220 75 85 153 118 270 113 59 -3 90 -10 132
-31z m955 -961 c71 -32 133 -93 165 -163 33 -72 31 -208 -4 -282 -32 -66 -86
-123 -154 -158 -44 -24 -62 -27 -145 -27 -84 0 -101 3 -145 27 -134 71 -212
223 -184 358 45 221 265 336 467 245z"/>
<path d="M3194 4401 c-92 -56 -111 -178 -41 -258 58 -66 138 -81 217 -40 52
25 90 88 90 147 0 49 -38 120 -79 147 -45 30 -141 32 -187 4z"/>
<path d="M4191 3449 c-121 -48 -153 -199 -59 -286 81 -76 212 -61 269 29 29
47 23 150 -10 197 -41 57 -135 86 -200 60z"/>
<path d="M721 4093 c-213 -257 -381 -578 -467 -892 -59 -214 -75 -332 -81
-577 -6 -242 3 -353 43 -551 133 -654 545 -1231 1125 -1574 298 -176 613 -280
966 -319 165 -18 494 -8 652 20 341 60 645 180 921 365 121 80 292 215 298
235 2 5 -7 12 -20 14 -13 3 -77 17 -143 32 -853 186 -1658 655 -2218 1294
-474 541 -800 1182 -951 1876 -15 65 -29 129 -31 142 -3 12 -9 22 -13 22 -5 0
-41 -39 -81 -87z"/>
</g>
</svg>
