<?xml version="1.0" standalone="no"?>
<!DOCTYPE svg PUBLIC "-//W3C//DTD SVG 20010904//EN"
 "http://www.w3.org/TR/2001/REC-SVG-20010904/DTD/svg10.dtd">
<svg version="1.0" xmlns="http://www.w3.org/2000/svg"
 width="512.000000pt" height="512.000000pt" viewBox="0 0 512.000000 512.000000"
 preserveAspectRatio="xMidYMid meet">
<metadata>
Created by potrace 1.16, written by Peter Selinger 2001-2019
</metadata>
<g transform="translate(0.000000,512.000000) scale(0.100000,-0.100000)"
fill="#000000" stroke="none">
<path d="M3233 5101 c-266 -92 -373 -412 -217 -646 115 -174 348 -238 542
-150 80 37 163 121 203 208 26 58 34 88 37 155 10 182 -76 330 -236 409 -71
36 -82 38 -176 40 -77 2 -114 -2 -153 -16z"/>
<path d="M2563 4319 c-54 -10 -111 -40 -144 -76 -25 -26 -69 -103 -69 -119 0
-4 48 -4 106 -1 58 2 104 4 102 2 -2 -1 -178 -55 -392 -120 -214 -64 -403
-123 -420 -130 -37 -16 -82 -58 -102 -96 -7 -15 -70 -215 -140 -446 -115 -381
-126 -424 -122 -480 7 -118 90 -193 213 -193 44 0 71 6 99 23 78 44 87 65 204
455 61 200 111 364 113 366 2 2 157 49 343 106 186 56 346 104 355 107 9 3
-105 -69 -253 -161 -148 -91 -273 -169 -278 -174 -5 -5 -51 -150 -103 -322
-52 -172 -106 -337 -119 -366 -14 -30 -47 -78 -75 -107 l-49 -52 214 -310
c118 -170 214 -313 214 -317 0 -4 -133 -164 -296 -355 -163 -191 -304 -365
-315 -385 -61 -118 -17 -267 98 -335 42 -24 58 -28 128 -28 69 0 86 4 126 27
34 20 140 139 420 467 219 258 383 461 396 489 28 59 30 141 4 198 -10 23 -50
83 -88 135 -38 52 -136 184 -218 294 -81 110 -139 193 -129 184 10 -9 134
-110 274 -226 278 -229 331 -280 363 -351 30 -67 29 -178 -2 -249 l-23 -51
127 -454 c83 -299 134 -465 150 -490 48 -73 118 -108 217 -108 69 0 111 15
162 60 58 51 80 103 81 185 0 61 -23 151 -174 690 -101 364 -184 640 -199 668
-33 61 -60 79 -294 202 -104 54 -188 103 -188 107 0 16 253 588 258 583 2 -2
42 -71 87 -152 100 -181 127 -205 235 -211 l69 -4 403 162 c222 89 418 173
436 187 82 62 100 190 39 281 -29 42 -108 82 -165 82 -32 0 -123 -31 -333
-111 -160 -61 -292 -110 -294 -108 -2 2 -59 94 -127 204 l-123 200 18 50 c35
100 -1 230 -80 291 -29 22 -501 236 -593 269 -52 18 -100 23 -147 14z"/>
<path d="M880 1570 c-520 -39 -806 -181 -776 -385 30 -196 421 -463 986 -673
650 -241 1377 -403 2198 -488 202 -21 803 -30 969 -15 370 35 600 105 702 216
198 214 -122 519 -849 809 -102 40 -187 72 -189 70 -1 -1 5 -43 14 -92 15 -76
16 -100 6 -158 -30 -172 -141 -306 -306 -370 -74 -28 -230 -26 -307 5 -122 48
-228 154 -271 271 -9 25 -53 176 -97 335 -45 160 -84 293 -88 297 -4 4 -25 10
-48 14 l-41 6 -278 -327 c-338 -398 -367 -426 -482 -466 -160 -55 -324 -21
-449 94 -116 105 -149 183 -149 347 0 109 2 118 32 180 18 37 77 119 136 190
81 97 102 127 90 133 -20 12 -665 17 -803 7z"/>
</g>
</svg>
