<?xml version="1.0" standalone="no"?>
<!DOCTYPE svg PUBLIC "-//W3C//DTD SVG 20010904//EN"
 "http://www.w3.org/TR/2001/REC-SVG-20010904/DTD/svg10.dtd">
<svg version="1.0" xmlns="http://www.w3.org/2000/svg"
 width="512.000000pt" height="512.000000pt" viewBox="0 0 512.000000 512.000000"
 preserveAspectRatio="xMidYMid meet">
<metadata>
Created by potrace 1.16, written by Peter Selinger 2001-2019
</metadata>
<g transform="translate(0.000000,512.000000) scale(0.100000,-0.100000)"
fill="#000000" stroke="none">
<path d="M4140 5114 c-144 -27 -203 -42 -310 -76 -442 -143 -957 -451 -1474
-882 -150 -125 -433 -384 -533 -488 l-61 -65 -561 561 -561 561 77 78 78 77
-115 115 c-63 63 -119 115 -125 115 -13 0 -545 -532 -545 -545 0 -6 52 -62
115 -125 l115 -115 78 78 77 77 1603 -1603 1603 -1603 29 -99 c96 -333 252
-636 468 -915 94 -120 220 -260 235 -260 16 0 780 765 776 777 -9 20 -191 181
-294 258 -270 203 -571 355 -880 444 -69 20 -72 22 -228 178 l-157 158 111
110 c684 677 1244 1568 1380 2196 31 138 33 399 5 498 -63 228 -230 396 -471
471 -58 18 -99 22 -240 25 -93 2 -181 1 -195 -1z"/>
<path d="M1223 2988 c-318 -394 -596 -802 -863 -1268 -98 -170 -330 -622 -330
-642 0 -7 223 -236 495 -508 l495 -495 223 112 c626 316 1117 632 1705 1098
56 44 101 85 102 90 0 6 -389 399 -863 873 l-864 864 -100 -124z"/>
</g>
</svg>
