<?xml version="1.0" standalone="no"?>
<!DOCTYPE svg PUBLIC "-//W3C//DTD SVG 20010904//EN"
 "http://www.w3.org/TR/2001/REC-SVG-20010904/DTD/svg10.dtd">
<svg version="1.0" xmlns="http://www.w3.org/2000/svg"
 width="512.000000pt" height="512.000000pt" viewBox="0 0 512.000000 512.000000"
 preserveAspectRatio="xMidYMid meet">
<metadata>
Created by potrace 1.16, written by Peter Selinger 2001-2019
</metadata>
<g transform="translate(0.000000,512.000000) scale(0.100000,-0.100000)"
fill="#000000" stroke="none">
<path d="M2255 5113 c-216 -28 -456 -88 -635 -160 -874 -347 -1484 -1129
-1605 -2056 -8 -65 -15 -149 -15 -186 l0 -69 122 -55 c149 -66 265 -108 412
-147 97 -25 319 -70 350 -70 8 0 11 79 11 253 0 263 7 338 51 557 52 260 116
445 244 705 145 296 309 524 540 755 151 151 272 250 445 364 72 47 139 92
150 100 19 15 19 15 -10 14 -16 -1 -43 -3 -60 -5z"/>
<path d="M2939 5060 c-285 -96 -537 -231 -779 -418 -117 -91 -306 -277 -403
-397 -294 -365 -478 -780 -552 -1252 -19 -119 -31 -435 -20 -557 l7 -89 122 7
c368 21 730 114 1026 264 l75 38 3 45 c51 864 461 1639 1140 2153 l64 48 -42
19 c-96 43 -235 90 -361 123 -191 49 -184 48 -280 16z"/>
<path d="M3805 4679 c-181 -129 -380 -314 -524 -488 l-61 -74 128 -69 c271
-148 483 -305 687 -512 149 -150 234 -253 344 -416 157 -234 271 -466 354
-726 84 -260 124 -486 136 -759 l7 -170 38 79 c74 158 144 398 183 631 14 89
18 165 18 395 -1 314 -12 409 -75 652 -155 597 -531 1124 -1057 1479 -40 27
-73 49 -75 49 -2 0 -48 -32 -103 -71z"/>
<path d="M2983 3728 c-108 -217 -166 -380 -217 -611 -27 -120 -56 -338 -56
-423 l0 -51 83 -55 c292 -194 596 -501 790 -795 232 -352 386 -755 446 -1168
11 -76 22 -140 24 -142 10 -10 205 154 323 271 l130 131 17 80 c46 219 51 275
52 545 0 292 -10 390 -66 619 -45 182 -101 336 -189 516 -134 275 -258 452
-465 664 -211 217 -415 368 -664 495 -71 36 -131 66 -134 66 -2 0 -35 -64 -74
-142z"/>
<path d="M2495 2373 c-246 -129 -592 -238 -905 -284 -201 -30 -574 -33 -770
-6 -245 34 -516 109 -725 201 -78 34 -80 35 -83 14 -9 -51 48 -342 94 -490 23
-72 29 -81 97 -142 407 -364 891 -581 1442 -647 145 -17 455 -15 605 5 294 39
572 123 824 250 154 77 356 200 356 216 0 16 -124 203 -205 308 -100 129 -276
309 -397 406 -86 70 -247 183 -270 191 -7 2 -35 -8 -63 -22z"/>
<path d="M3465 1163 c-423 -265 -856 -406 -1360 -443 -504 -38 -1081 90 -1536
339 -68 37 -126 66 -128 65 -6 -6 61 -98 149 -205 160 -194 398 -401 620 -539
218 -137 553 -271 805 -323 206 -43 298 -52 545 -52 292 0 466 23 720 96 213
61 490 184 490 217 0 126 -45 404 -94 582 -35 130 -104 320 -115 320 -3 0 -46
-26 -96 -57z"/>
</g>
</svg>
