<?xml version="1.0" standalone="no"?>
<!DOCTYPE svg PUBLIC "-//W3C//DTD SVG 20010904//EN"
 "http://www.w3.org/TR/2001/REC-SVG-20010904/DTD/svg10.dtd">
<svg version="1.0" xmlns="http://www.w3.org/2000/svg"
 width="512.000000pt" height="512.000000pt" viewBox="0 0 512.000000 512.000000"
 preserveAspectRatio="xMidYMid meet">
<metadata>
Created by potrace 1.16, written by Peter Selinger 2001-2019
</metadata>
<g transform="translate(0.000000,512.000000) scale(0.100000,-0.100000)"
fill="#000000" stroke="none">
<path d="M1655 4676 c-161 -68 -251 -195 -263 -368 -13 -215 145 -410 352
-434 l53 -6 44 47 c62 67 144 105 229 105 l66 0 32 53 c19 31 39 84 48 128 39
186 -54 377 -225 462 -59 29 -75 32 -171 35 -93 2 -112 0 -165 -22z"/>
<path d="M3172 4681 c-73 -27 -112 -53 -166 -111 -93 -99 -130 -232 -102 -366
31 -154 128 -264 277 -314 88 -30 219 -25 299 12 239 110 322 396 180 618 -40
63 -98 111 -176 147 -80 37 -231 44 -312 14z"/>
<path d="M1988 3870 c-20 -11 -50 -36 -65 -57 -25 -33 -28 -44 -28 -114 0
-116 7 -122 329 -304 249 -142 272 -153 329 -157 73 -6 150 -42 201 -93 20
-19 41 -35 48 -35 10 0 404 118 533 160 25 8 27 8 13 -3 -9 -6 -29 -19 -45
-28 -23 -12 -143 -171 -244 -321 -3 -5 -42 -3 -89 6 -120 23 -120 23 -120 -24
0 -100 -84 -224 -184 -274 -59 -29 -71 -24 174 -70 308 -58 306 -58 350 -46
58 16 96 54 195 195 48 69 89 125 90 123 2 -2 50 -115 108 -252 l105 -248
-255 -310 c-140 -170 -268 -328 -285 -352 -27 -40 -38 -82 -124 -511 -52 -258
-94 -491 -94 -519 0 -132 107 -236 242 -236 93 0 188 61 220 139 6 14 50 218
97 453 l86 427 237 289 237 289 77 7 c42 4 90 10 105 13 l28 5 3 -308 3 -309
205 -449 c137 -301 215 -461 236 -483 117 -124 335 -83 402 77 9 23 13 57 10
105 -4 66 -15 93 -186 467 l-182 398 0 369 0 369 -196 623 c-107 343 -207 646
-222 674 -15 27 -63 86 -107 131 -123 124 -245 174 -425 174 -107 0 -155 -11
-300 -72 -111 -46 -174 -81 -192 -107 -9 -13 -92 -43 -258 -94 l-245 -76 -329
187 c-316 179 -332 186 -390 189 -46 3 -70 -2 -98 -17z"/>
<path d="M1195 3853 c-163 -36 -297 -129 -387 -267 -43 -67 -136 -344 -372
-1114 l-66 -214 0 -369 0 -370 -182 -397 c-171 -374 -182 -401 -186 -467 -6
-111 37 -187 133 -231 99 -46 230 -19 290 61 28 36 408 861 424 922 7 23 11
154 11 327 l0 288 33 -5 c17 -4 65 -9 105 -13 l73 -7 237 -289 237 -289 86
-430 c47 -236 91 -440 97 -453 20 -45 72 -94 124 -116 111 -48 240 -8 302 94
52 83 49 110 -57 640 -87 429 -98 472 -125 512 -17 24 -145 182 -285 352
l-255 309 41 98 c39 93 40 99 22 109 -39 23 -94 78 -109 111 -16 34 -139 536
-132 542 1 2 54 -97 117 -219 63 -122 127 -237 142 -255 15 -17 48 -39 73 -49
42 -16 56 -16 247 0 543 46 744 65 762 72 41 14 88 58 106 98 48 107 -8 233
-120 267 -30 9 -108 5 -397 -20 -197 -17 -372 -31 -389 -31 -29 0 -34 8 -119
173 -49 94 -81 164 -70 155 10 -9 53 -58 94 -107 41 -49 79 -90 83 -90 9 -1
61 111 88 193 l20 59 -40 41 c-52 54 -78 108 -94 192 l-12 69 -85 37 c-162 71
-230 88 -343 87 -56 -1 -111 -3 -122 -6z"/>
</g>
</svg>
